<svg width="43" height="43" viewBox="0 0 43 43" fill="none" xmlns="http://www.w3.org/2000/svg">
<mask id="mask0_223_359" style="mask-type:alpha" maskUnits="userSpaceOnUse" x="0" y="0" width="43" height="43">
<rect x="0.744263" y="0.441406" width="42.0596" height="42.0596" fill="#D9D9D9"/>
</mask>
<g mask="url(#mask0_223_359)">
<path d="M13.0117 37.2435C12.0479 37.2435 11.2227 36.9003 10.5363 36.2139C9.84995 35.5276 9.50675 34.7024 9.50675 33.7386V10.9563H7.75427V7.45133H16.5167V5.69885H27.0316V7.45133H35.794V10.9563H34.0415V33.7386C34.0415 34.7024 33.6983 35.5276 33.0119 36.2139C32.3255 36.9003 31.5004 37.2435 30.5365 37.2435H13.0117ZM30.5365 10.9563H13.0117V33.7386H30.5365V10.9563ZM16.5167 30.2336H20.0216V14.4613H16.5167V30.2336ZM23.5266 30.2336H27.0316V14.4613H23.5266V30.2336Z" fill="#1C1B1F"/>
</g>
</svg>
