<svg width="44" height="43" viewBox="0 0 44 43" fill="none" xmlns="http://www.w3.org/2000/svg">
<mask id="mask0_223_362" style="mask-type:alpha" maskUnits="userSpaceOnUse" x="0" y="0" width="44" height="43">
<rect x="0.967773" y="0.698364" width="42.0596" height="42.0596" fill="#D9D9D9"/>
</mask>
<g mask="url(#mask0_223_362)">
<path d="M9.73018 33.9955H12.1837L27.2988 18.8804L24.8453 16.4269L9.73018 31.5421V33.9955ZM34.7907 16.3393L27.3426 8.97885L29.7961 6.52538C30.4679 5.85359 31.293 5.5177 32.2715 5.5177C33.25 5.5177 34.0751 5.85359 34.7469 6.52538L37.2003 8.97885C37.8721 9.65064 38.2226 10.4612 38.2518 11.4104C38.281 12.3597 37.9597 13.1702 37.288 13.842L34.7907 16.3393ZM32.2496 18.9242L13.6733 37.5005H6.22522V30.0524L24.8015 11.4761L32.2496 18.9242Z" fill="#1C1B1F"/>
</g>
</svg>
