<svg width="74" height="74" viewBox="0 0 74 74" fill="none" xmlns="http://www.w3.org/2000/svg">
<path fill-rule="evenodd" clip-rule="evenodd" d="M37.1176 12.2941C23.5379 12.2941 12.5294 23.3026 12.5294 36.8824C12.5294 43.334 15.013 49.2068 19.0821 53.5954C19.2358 53.0871 19.4401 52.5878 19.7066 52.1113C20.6102 50.4957 21.7501 49.0018 23.1026 47.6808C24.4599 46.3551 25.9913 45.2425 27.643 44.3635C25.1274 41.9555 23.5546 38.5902 23.5546 34.8333C23.5546 27.4098 29.6957 21.5147 37.1176 21.5147C44.5396 21.5147 50.6806 27.4098 50.6806 34.8333C50.6806 38.5902 49.1079 41.9555 46.5923 44.3635C48.244 45.2425 49.7753 46.3551 51.1326 47.6808C52.4851 49.0018 53.625 50.4957 54.5286 52.1113C54.7952 52.5878 54.9995 53.0871 55.1531 53.5954C59.2222 49.2068 61.7058 43.334 61.7058 36.8824C61.7058 23.3026 50.6973 12.2941 37.1176 12.2941ZM49.2308 58.2854C49.3501 57.6715 49.4099 57.0952 49.4117 56.5846C49.4146 55.7409 49.2601 55.2843 49.1637 55.1119C48.5473 54.0098 47.7674 52.9866 46.8375 52.0784C44.2717 49.5723 40.7767 48.152 37.1176 48.152C33.4585 48.152 29.9635 49.5723 27.3977 52.0784C26.4678 52.9866 25.688 54.0098 25.0715 55.1119C24.9751 55.2843 24.8206 55.7409 24.8235 56.5846C24.8253 57.0952 24.8851 57.6715 25.0045 58.2854C28.5779 60.3127 32.7086 61.4706 37.1176 61.4706C41.5266 61.4706 45.6574 60.3127 49.2308 58.2854ZM37.1176 42.0049C41.282 42.0049 44.5335 38.7262 44.5335 34.8333C44.5335 30.9405 41.282 27.6618 37.1176 27.6618C32.9532 27.6618 29.7017 30.9405 29.7017 34.8333C29.7017 38.7262 32.9532 42.0049 37.1176 42.0049ZM6.38232 36.8824C6.38232 19.9077 20.143 6.14706 37.1176 6.14706C54.0923 6.14706 67.8529 19.9077 67.8529 36.8824C67.8529 47.8157 62.1419 57.413 53.5548 62.8572C48.7992 65.8723 43.1576 67.6176 37.1176 67.6176C31.0777 67.6176 25.436 65.8723 20.6804 62.8572C12.0934 57.413 6.38232 47.8157 6.38232 36.8824Z" fill="black"/>
</svg>
