<svg xmlns="http://www.w3.org/2000/svg" xmlns:xlink="http://www.w3.org/1999/xlink" version="1.1" width="256" height="256" viewBox="0 0 256 256" xml:space="preserve">

<defs>
</defs>
<g style="stroke: none; stroke-width: 0; stroke-dasharray: none; stroke-linecap: butt; stroke-linejoin: miter; stroke-miterlimit: 10; fill: none; fill-rule: nonzero; opacity: 1;" transform="translate(1.4065934065934016 1.4065934065934016) scale(2.81 2.81)" >
	<path d="M 50.582 6 H 21.926 c -2.466 0 -4.465 1.999 -4.465 4.465 V 63.86 c 0 2.466 1.999 4.465 4.465 4.465 h 4.733 h 23.269 h 0.286 c 2.669 0 4.833 -2.164 4.833 -4.833 V 46.657 V 31.769 V 10.465 C 55.047 7.999 53.048 6 50.582 6 z" style="stroke: none; stroke-width: 1; stroke-dasharray: none; stroke-linecap: butt; stroke-linejoin: miter; stroke-miterlimit: 10; fill: rgb(248,218,127); fill-rule: nonzero; opacity: 1;" transform=" matrix(1 0 0 1 0 0) " stroke-linecap="round" />
	<path d="M 74.794 90 H 44.75 c -0.513 0 -0.943 -0.388 -0.995 -0.898 c -0.947 -9.257 1.928 -18.204 7.716 -24.166 l -7.394 -7.114 c -0.354 -0.309 -0.796 -0.565 -1.281 -0.737 l -8.162 -1.591 c -0.043 -0.008 -0.085 -0.02 -0.126 -0.033 c -3.796 -1.272 -5.981 -5.175 -5.082 -9.077 l 0.251 -1.091 c 0.905 -3.929 4.741 -6.524 8.722 -5.911 l 7.885 0.688 c 0.971 0.147 1.847 0.499 2.601 1.023 l 15.167 10.686 c 0.451 0.318 0.56 0.941 0.241 1.394 c -0.317 0.452 -0.94 0.558 -1.394 0.241 L 47.736 42.729 c -0.5 -0.349 -1.086 -0.583 -1.691 -0.677 l -7.885 -0.688 c -3.022 -0.464 -5.862 1.461 -6.533 4.376 l -0.251 1.091 c -0.662 2.873 0.93 5.747 3.709 6.711 l 8.163 1.592 c 0.043 0.009 0.085 0.02 0.127 0.033 c 0.759 0.255 1.451 0.652 2.055 1.18 l 8.169 7.857 c 0.197 0.189 0.308 0.451 0.307 0.725 s -0.114 0.534 -0.313 0.723 c -5.644 5.34 -8.572 13.64 -7.926 22.348 h 28.133 c 0.085 -8.033 1.178 -14.344 2.146 -19.938 c 1.18 -6.814 2.198 -12.7 1.171 -19.857 c -0.609 -4.245 -3.457 -7.861 -7.431 -9.437 l -3.899 -1.761 c -0.503 -0.227 -0.727 -0.82 -0.499 -1.323 c 0.228 -0.503 0.819 -0.728 1.323 -0.5 l 3.855 1.742 c 4.596 1.821 7.919 6.04 8.631 10.993 c 1.071 7.471 0.028 13.501 -1.181 20.482 C 76.921 74.147 75.794 80.659 75.794 89 C 75.794 89.553 75.347 90 74.794 90 z" style="stroke: none; stroke-width: 1; stroke-dasharray: none; stroke-linecap: butt; stroke-linejoin: miter; stroke-miterlimit: 10; fill: rgb(0,0,0); fill-rule: nonzero; opacity: 1;" transform=" matrix(1 0 0 1 0 0) " stroke-linecap="round" />
	<path d="M 38.661 75.325 H 15.32 c -2.679 0 -4.859 -2.18 -4.859 -4.859 V 4.859 C 10.461 2.18 12.641 0 15.32 0 c 0.552 0 1 0.448 1 1 s -0.448 1 -1 1 c -1.576 0 -2.859 1.283 -2.859 2.859 v 65.607 c 0 1.576 1.283 2.859 2.859 2.859 h 23.34 c 0.552 0 1 0.447 1 1 S 39.213 75.325 38.661 75.325 z" style="stroke: none; stroke-width: 1; stroke-dasharray: none; stroke-linecap: butt; stroke-linejoin: miter; stroke-miterlimit: 10; fill: rgb(0,0,0); fill-rule: nonzero; opacity: 1;" transform=" matrix(1 0 0 1 0 0) " stroke-linecap="round" />
	<path d="M 60.047 51.179 c -0.553 0 -1 -0.447 -1 -1 V 4.859 C 59.047 3.283 57.765 2 56.188 2 H 23.527 c -0.552 0 -1 -0.448 -1 -1 s 0.448 -1 1 -1 h 32.661 c 2.68 0 4.859 2.18 4.859 4.859 v 45.32 C 61.047 50.731 60.6 51.179 60.047 51.179 z" style="stroke: none; stroke-width: 1; stroke-dasharray: none; stroke-linecap: butt; stroke-linejoin: miter; stroke-miterlimit: 10; fill: rgb(0,0,0); fill-rule: nonzero; opacity: 1;" transform=" matrix(1 0 0 1 0 0) " stroke-linecap="round" />
	<path d="M 45.144 22.935 c -1.737 0 -3.426 -0.613 -4.757 -1.728 c -0.423 -0.354 -0.479 -0.985 -0.125 -1.409 c 0.354 -0.424 0.984 -0.479 1.409 -0.125 c 0.971 0.813 2.204 1.261 3.473 1.261 c 2.985 0 5.414 -2.429 5.414 -5.414 c 0 -2.985 -2.429 -5.414 -5.414 -5.414 s -5.414 2.429 -5.414 5.414 c 0 0.552 -0.448 1 -1 1 s -1 -0.448 -1 -1 c 0 -4.088 3.326 -7.414 7.414 -7.414 c 4.087 0 7.414 3.326 7.414 7.414 S 49.231 22.935 45.144 22.935 z" style="stroke: none; stroke-width: 1; stroke-dasharray: none; stroke-linecap: butt; stroke-linejoin: miter; stroke-miterlimit: 10; fill: rgb(0,0,0); fill-rule: nonzero; opacity: 1;" transform=" matrix(1 0 0 1 0 0) " stroke-linecap="round" />
	<path d="M 23.527 63.539 c -0.552 0 -1 -0.447 -1 -1 V 1 c 0 -0.552 0.448 -1 1 -1 s 1 0.448 1 1 v 61.539 C 24.527 63.092 24.079 63.539 23.527 63.539 z" style="stroke: none; stroke-width: 1; stroke-dasharray: none; stroke-linecap: butt; stroke-linejoin: miter; stroke-miterlimit: 10; fill: rgb(0,0,0); fill-rule: nonzero; opacity: 1;" transform=" matrix(1 0 0 1 0 0) " stroke-linecap="round" />
</g>
</svg>